<svg preserveAspectRatio="none" width="100%" height="100%" overflow="visible" style="display: block;" viewBox="0 0 24 24" fill="none" xmlns="http://www.w3.org/2000/svg">
<g id="Icon">
<path id="Vector" d="M4 12H20M4 12C2.89543 12 2 12.8954 2 14V18C2 18.5523 2.44772 19 3 19M4 12V7C4 5.34315 5.34315 4 7 4H17C18.6569 4 20 5.34315 20 7V12M20 12C21.1046 12 22 12.8954 22 14V18C22 18.5523 21.5523 19 21 19M21 19H3M21 19V21M3 19V21M12 11V9.00001M12 11C12 11.5523 11.5523 12 11 12H8C7.44772 12 7 11.5523 7 11V9.00001C7 8.44773 7.44772 8.00001 8 8.00001H11C11.5523 8.00001 12 8.44773 12 9.00001M12 11C12 11.5523 12.4477 12 13 12H16C16.5523 12 17 11.5523 17 11V9.00001C17 8.44773 16.5523 8.00001 16 8.00001H13C12.4477 8.00001 12 8.44773 12 9.00001" stroke="var(--stroke-0, #1F1F1F)" stroke-width="1.5"/>
</g>
</svg>
