<svg preserveAspectRatio="none" width="100%" height="100%" overflow="visible" style="display: block;" viewBox="0 0 24 24" fill="none" xmlns="http://www.w3.org/2000/svg">
<g id="icons">
<path id="Vector" d="M4.26953 20.1784V5.26172C4.26953 4.98558 4.26953 4.76172 4.26953 4.76172H20.1029M20.1029 4.76172C20.1029 5.22195 19.7298 5.59505 19.2695 5.59505C18.8093 5.59505 18.4362 5.22195 18.4362 4.76172C18.4362 4.30149 18.8093 3.92839 19.2695 3.92839C19.7298 3.92839 20.1029 4.30149 20.1029 4.76172ZM15.9362 19.7617H18.7695C19.0457 19.7617 19.2695 19.5379 19.2695 19.2617V16.4284M19.2695 8.09505V9.76172M19.2695 12.2617V13.9284M7.60286 19.7617H9.26953M11.7695 19.7617H13.4362M4.26953 5.59505C4.72976 5.59505 5.10286 5.22195 5.10286 4.76172C5.10286 4.30149 4.72976 3.92839 4.26953 3.92839C3.8093 3.92839 3.4362 4.30149 3.4362 4.76172C3.4362 5.22195 3.8093 5.59505 4.26953 5.59505ZM4.26953 20.5951C4.72976 20.5951 5.10286 20.222 5.10286 19.7617C5.10286 19.3015 4.72976 18.9284 4.26953 18.9284C3.8093 18.9284 3.4362 19.3015 3.4362 19.7617C3.4362 20.222 3.8093 20.5951 4.26953 20.5951Z" stroke="var(--stroke-0, #1F1F1F)" stroke-width="1.5"/>
</g>
</svg>
