<svg width="24" height="24" viewBox="0 0 24 24" fill="none" xmlns="http://www.w3.org/2000/svg">
<path fill-rule="evenodd" clip-rule="evenodd" d="M17.9994 17.5411C17.9994 17.9379 17.6759 18.2617 17.2795 18.2617H14.8259C14.4295 18.2617 14.1059 17.9379 14.1059 17.5411V14.5419C14.1059 14.0004 13.6632 13.5572 13.1221 13.5572H10.8773C10.3362 13.5572 9.89346 14.0003 9.89346 14.5419V17.5411C9.89346 17.9379 9.56993 18.2617 9.17355 18.2617H6.71991C6.32352 18.2617 6 17.9379 6 17.5411L6 12.266C6 11.7897 6.16966 11.3797 6.50643 11.0431L10.778 6.76698C11.451 6.0933 12.549 6.0933 13.222 6.76698L17.4936 11.0426C17.8298 11.3792 18 11.7892 18 12.2655L17.9994 17.5411Z" fill="white" stroke="white" stroke-width="1.5"/>
</svg>
