<svg preserveAspectRatio="none" width="100%" height="100%" overflow="visible" style="display: block;" viewBox="0 0 24 24" fill="none" xmlns="http://www.w3.org/2000/svg">
<g id="icons">
<path id="Vector" d="M21 13V16C21 18.2091 19.2091 20 17 20H7C4.79086 20 3 18.2091 3 16V13.6C3 13.2686 3.26863 13 3.6 13H21ZM21 13V7C21 4.79086 19.2091 3 17 3H12M16 20L17 22M8 20L7 22M12 3C8.86312 3 8.18624 6.07539 8.04019 7.4023C8.00393 7.7317 8.26865 8 8.60003 8H15.4C15.7314 8 15.9961 7.73169 15.9598 7.4023C15.8138 6.07539 15.1369 3 12 3Z" stroke="var(--stroke-0, #1F1F1F)" stroke-width="1.5"/>
</g>
</svg>
