<svg preserveAspectRatio="none" width="100%" height="100%" overflow="visible" style="display: block;" viewBox="0 0 24 24" fill="none" xmlns="http://www.w3.org/2000/svg">
<g id="icons">
<path id="Vector" fill-rule="evenodd" clip-rule="evenodd" d="M12.4242 7.23927L12 7.67003L11.5757 7.2392C10.8021 6.45332 9.74553 6.01077 8.64279 6.01077C7.54006 6.01077 6.48345 6.45332 5.70987 7.2392C4.09674 8.89691 4.09674 11.5376 5.70987 13.1954L10.2037 17.7584C10.6775 18.2397 11.3247 18.5107 12 18.5107C12.6754 18.5107 13.3225 18.2397 13.7963 17.7584L18.2902 13.1954C19.9033 11.5377 19.9033 8.89699 18.2902 7.23928C17.5166 6.45337 16.46 6.0108 15.3572 6.0108C14.2545 6.0108 13.1978 6.45336 12.4242 7.23927Z" stroke="var(--stroke-0, #1F1F1F)" stroke-width="1.5"/>
</g>
</svg>
