<svg width="160" height="24" viewBox="0 0 160 24" fill="none" xmlns="http://www.w3.org/2000/svg">
<circle cx="8.38813" cy="11.7475" r="8.38813" fill="#E1BC88"/>
<path d="M24.6719 23.0718L26.1487 22.8608V7.24822L24.6719 7.03724V6.61528H28.2585V8.83057C28.6102 8.07104 29.0814 7.4803 29.6721 7.05834C30.2769 6.62231 30.9943 6.4043 31.8241 6.4043C32.8228 6.4043 33.7018 6.64341 34.4614 7.12163C35.2209 7.58579 35.8116 8.24686 36.2336 9.10485C36.6556 9.94877 36.8665 10.9404 36.8665 12.0797C36.8665 13.219 36.6556 14.2176 36.2336 15.0756C35.8116 15.9195 35.2209 16.5736 34.4614 17.0377C33.7018 17.5019 32.8228 17.734 31.8241 17.734C30.9943 17.734 30.2769 17.523 29.6721 17.101C29.0814 16.665 28.6102 16.0742 28.2585 15.3288V22.8608L30.2418 23.0718V23.4937H24.6719V23.0718ZM31.6131 17.2065C33.5682 17.2065 34.5458 15.8492 34.5458 13.1346V11.0248C34.5458 8.29609 33.5682 6.93175 31.6131 6.93175C30.9943 6.93175 30.4316 7.1146 29.9253 7.4803C29.4189 7.83193 29.0181 8.31016 28.7227 8.91497C28.4273 9.51978 28.2726 10.1738 28.2585 10.8771V13.1346C28.2585 13.8519 28.3992 14.527 28.6805 15.16C28.9759 15.7789 29.3767 16.2782 29.8831 16.658C30.4035 17.0236 30.9802 17.2065 31.6131 17.2065Z" fill="white"/>
<path d="M44.2425 17.734C43.2016 17.734 42.2592 17.5019 41.4153 17.0377C40.5714 16.5595 39.9033 15.8914 39.411 15.0334C38.9187 14.1754 38.6726 13.1838 38.6726 12.0586C38.6726 10.9333 38.9117 9.94877 39.3899 9.10485C39.8822 8.24686 40.5362 7.58579 41.352 7.12163C42.1819 6.64341 43.1032 6.4043 44.1159 6.4043C45.002 6.4043 45.7967 6.60121 46.5 6.99504C47.2032 7.38887 47.7518 7.93742 48.1456 8.64069C48.5394 9.3299 48.7434 10.1246 48.7574 11.0248H40.9934V13.1135C40.9934 14.3512 41.2676 15.3569 41.8162 16.1305C42.3788 16.89 43.1876 17.2698 44.2425 17.2698C45.213 17.2698 46.071 16.9955 46.8164 16.447C47.5619 15.8984 48.019 15.1881 48.1878 14.3161H48.673C48.4761 15.3569 47.9768 16.1868 47.1751 16.8056C46.3734 17.4245 45.3958 17.734 44.2425 17.734ZM46.4367 10.4973C46.4367 9.27363 46.2468 8.36642 45.867 7.77567C45.4872 7.17086 44.8965 6.86846 44.0948 6.86846C43.1524 6.86846 42.421 7.19899 41.9006 7.86006C41.3802 8.52114 41.0848 9.40022 41.0145 10.4973H46.4367Z" fill="white"/>
<path d="M50.1614 17.101L51.6383 16.89V7.22712L50.1614 7.01614V6.59418H53.7481V8.87277C54.2685 8.11324 54.8804 7.51546 55.5836 7.07944C56.2869 6.62934 57.0464 6.4043 57.8622 6.4043C58.8749 6.4043 59.6696 6.65747 60.2463 7.16383C60.8371 7.67018 61.1324 8.42268 61.1324 9.42132V16.89L62.6093 17.101V17.523H57.7567V17.101L59.0226 16.89V9.46352C59.0226 8.73212 58.8749 8.1695 58.5796 7.77567C58.2842 7.36778 57.8271 7.16383 57.2082 7.16383C56.5612 7.16383 55.9353 7.40294 55.3305 7.88116C54.7397 8.34532 54.2123 8.922 53.7481 9.6112V16.89L55.014 17.101V17.523H50.1614V17.101Z" fill="white"/>
<path d="M67.9211 17.734C66.9927 17.734 66.2473 17.5019 65.6847 17.0377C65.1361 16.5736 64.8618 15.8351 64.8618 14.8224V7.22712L63.3639 7.01614V6.59418H64.8618V4.84304L66.9716 4.31559V6.59418H69.7144V7.01614L66.9716 7.22712V14.7802C66.9716 16.2712 67.5061 17.0166 68.5751 17.0166C68.8001 17.0166 69.0111 16.9815 69.208 16.9111C69.419 16.8408 69.5808 16.7705 69.6933 16.7001C69.8199 16.6298 69.8972 16.5806 69.9254 16.5525L70.1996 16.89C69.5667 17.4526 68.8072 17.734 67.9211 17.734Z" fill="white"/>
<path d="M70.7414 17.101L72.2183 16.89V1.27747L70.7414 1.06649V0.644531H74.3281V8.87277C74.8485 8.11324 75.4604 7.51546 76.1636 7.07944C76.8669 6.62934 77.6264 6.4043 78.4422 6.4043C79.4549 6.4043 80.2496 6.65747 80.8263 7.16383C81.4171 7.67018 81.7124 8.42268 81.7124 9.42132V16.89L83.1893 17.101V17.523H78.3367V17.101L79.6026 16.89V9.46352C79.6026 8.73212 79.4549 8.1695 79.1596 7.77567C78.8642 7.36778 78.4071 7.16383 77.7882 7.16383C77.1412 7.16383 76.5153 7.40294 75.9105 7.88116C75.3197 8.34532 74.7923 8.922 74.3281 9.6112V16.89L75.594 17.101V17.523H70.7414V17.101Z" fill="white"/>
<path d="M89.9387 17.734C88.926 17.734 88.0047 17.5019 87.1748 17.0377C86.345 16.5595 85.6839 15.8914 85.1916 15.0334C84.7134 14.1613 84.4743 13.1697 84.4743 12.0586C84.4743 10.9474 84.7134 9.96284 85.1916 9.10485C85.6839 8.24686 86.345 7.58579 87.1748 7.12163C88.0047 6.64341 88.926 6.4043 89.9387 6.4043C90.9514 6.4043 91.8727 6.64341 92.7025 7.12163C93.5324 7.58579 94.1864 8.24686 94.6647 9.10485C95.1569 9.96284 95.4031 10.9474 95.4031 12.0586C95.4031 13.1697 95.1569 14.1613 94.6647 15.0334C94.1864 15.8914 93.5324 16.5595 92.7025 17.0377C91.8727 17.5019 90.9514 17.734 89.9387 17.734ZM89.9387 17.2698C90.9795 17.2698 91.7602 16.89 92.2806 16.1305C92.8151 15.371 93.0823 14.3653 93.0823 13.1135V11.0037C93.0823 9.75186 92.8151 8.75321 92.2806 8.00775C91.7602 7.24822 90.9795 6.86846 89.9387 6.86846C88.8979 6.86846 88.1102 7.24822 87.5757 8.00775C87.0553 8.75321 86.7951 9.75186 86.7951 11.0037V13.1135C86.7951 14.3653 87.0553 15.371 87.5757 16.1305C88.1102 16.89 88.8979 17.2698 89.9387 17.2698Z" fill="white"/>
<path d="M101.406 17.734C100.393 17.734 99.5914 17.4808 99.0006 16.9744C98.424 16.4681 98.1356 15.7156 98.1356 14.7169V7.22712L96.6588 7.01614V6.59418H100.245V14.6747C100.245 15.3921 100.393 15.9547 100.688 16.3626C100.984 16.7705 101.441 16.9744 102.06 16.9744C102.707 16.9744 103.326 16.7634 103.916 16.3415C104.521 15.9055 105.056 15.371 105.52 14.738V7.22712L104.043 7.01614V6.59418H107.63V16.89L109.107 17.101V17.523H105.52V15.4976C105.014 16.2008 104.402 16.7494 103.684 17.1432C102.981 17.537 102.222 17.734 101.406 17.734Z" fill="white"/>
<path d="M114.694 17.734C113.541 17.734 112.577 17.4878 111.804 16.9955C111.03 16.5032 110.643 15.8633 110.643 15.0756C110.643 14.6677 110.749 14.3512 110.96 14.1262C111.185 13.8871 111.48 13.7675 111.846 13.7675C112.127 13.7675 112.366 13.8378 112.563 13.9785C112.76 14.1192 112.901 14.3161 112.985 14.5692C112.676 14.9068 112.521 15.2655 112.521 15.6452C112.521 16.0813 112.718 16.461 113.112 16.7845C113.506 17.108 114.033 17.2698 114.694 17.2698C115.58 17.2698 116.305 17.0729 116.867 16.679C117.43 16.2712 117.711 15.7296 117.711 15.0545C117.711 14.6607 117.592 14.3653 117.352 14.1684C117.113 13.9715 116.649 13.7464 115.96 13.4932L112.774 12.3329C111.522 11.8828 110.896 11.0459 110.896 9.82218C110.896 8.82354 111.241 8.00775 111.93 7.37481C112.619 6.7278 113.569 6.4043 114.779 6.4043C115.777 6.4043 116.628 6.63638 117.331 7.10053C118.049 7.55063 118.407 8.19763 118.407 9.04155C118.407 9.37912 118.316 9.6534 118.133 9.86438C117.95 10.0613 117.711 10.1598 117.416 10.1598C117.12 10.1598 116.874 10.0824 116.677 9.92767C116.494 9.75889 116.403 9.53384 116.403 9.25253C116.586 9.11188 116.713 8.9642 116.783 8.80948C116.853 8.64069 116.888 8.44378 116.888 8.21873C116.888 7.8249 116.713 7.5014 116.361 7.24822C116.023 6.99504 115.496 6.86846 114.779 6.86846C114.16 6.86846 113.625 6.96691 113.175 7.16383C112.739 7.34668 112.408 7.59282 112.183 7.90226C111.958 8.2117 111.846 8.52817 111.846 8.85167C111.846 9.18924 111.965 9.45648 112.205 9.6534C112.458 9.85031 112.915 10.0683 113.576 10.3074L116.53 11.3623C117.219 11.6155 117.739 11.9672 118.091 12.4172C118.443 12.8673 118.618 13.451 118.618 14.1684C118.618 15.1952 118.295 16.0461 117.648 16.7212C117.001 17.3964 116.016 17.734 114.694 17.734Z" fill="white"/>
<path d="M126.142 17.734C125.101 17.734 124.158 17.5019 123.314 17.0377C122.471 16.5595 121.802 15.8914 121.31 15.0334C120.818 14.1754 120.572 13.1838 120.572 12.0586C120.572 10.9333 120.811 9.94877 121.289 9.10485C121.781 8.24686 122.435 7.58579 123.251 7.12163C124.081 6.64341 125.002 6.4043 126.015 6.4043C126.901 6.4043 127.696 6.60121 128.399 6.99504C129.102 7.38887 129.651 7.93742 130.045 8.64069C130.439 9.3299 130.643 10.1246 130.657 11.0248H122.893V13.1135C122.893 14.3512 123.167 15.3569 123.715 16.1305C124.278 16.89 125.087 17.2698 126.142 17.2698C127.112 17.2698 127.97 16.9955 128.716 16.447C129.461 15.8984 129.918 15.1881 130.087 14.3161H130.572C130.375 15.3569 129.876 16.1868 129.074 16.8056C128.273 17.4245 127.295 17.734 126.142 17.734ZM128.336 10.4973C128.336 9.27363 128.146 8.36642 127.766 7.77567C127.386 7.17086 126.796 6.86846 125.994 6.86846C125.052 6.86846 124.32 7.19899 123.8 7.86006C123.279 8.52114 122.984 9.40022 122.914 10.4973H128.336Z" fill="white"/>
<path d="M133.812 17.734C133.46 17.734 133.158 17.6144 132.905 17.3753C132.665 17.1221 132.546 16.8197 132.546 16.4681C132.546 16.1164 132.665 15.8281 132.905 15.603C133.158 15.3639 133.46 15.2444 133.812 15.2444C134.163 15.2444 134.459 15.3639 134.698 15.603C134.937 15.8281 135.057 16.1164 135.057 16.4681C135.057 16.8197 134.937 17.1221 134.698 17.3753C134.459 17.6144 134.163 17.734 133.812 17.734Z" fill="white"/>
<path d="M140.157 17.734C139.257 17.734 138.518 17.5019 137.942 17.0377C137.365 16.5595 137.077 15.8562 137.077 14.9279C137.077 13.6058 137.632 12.6704 138.743 12.1219C139.855 11.5593 141.142 11.2779 142.604 11.2779H144.018V9.6534C144.018 8.922 143.934 8.35938 143.765 7.96555C143.61 7.55766 143.364 7.27635 143.026 7.12163C142.689 6.95285 142.232 6.86846 141.655 6.86846C140.994 6.86846 140.502 7.00208 140.178 7.26932C139.855 7.5225 139.693 7.8671 139.693 8.30312C139.693 8.71102 139.89 8.97826 140.284 9.10485C140.284 9.45648 140.15 9.76592 139.883 10.0332C139.615 10.3004 139.299 10.434 138.933 10.434C138.539 10.434 138.223 10.3285 137.984 10.1176C137.745 9.89251 137.625 9.55494 137.625 9.10485C137.625 8.28906 138.033 7.63502 138.849 7.14273C139.665 6.65044 140.684 6.4043 141.908 6.4043C144.721 6.4043 146.128 7.62799 146.128 10.0754V16.1094C146.128 16.4188 146.191 16.6579 146.318 16.8267C146.458 16.9815 146.655 17.0588 146.908 17.0588C147.147 17.0588 147.337 16.9815 147.478 16.8267C147.619 16.6579 147.689 16.4329 147.689 16.1516H148.132C148.132 16.6439 147.97 17.0307 147.647 17.312C147.337 17.5933 146.901 17.734 146.339 17.734C145.692 17.734 145.143 17.5511 144.693 17.1854C144.257 16.8056 144.032 16.2219 144.018 15.4343C143.68 16.1516 143.16 16.7142 142.457 17.1221C141.767 17.53 141.001 17.734 140.157 17.734ZM141.317 16.8056C141.697 16.8056 142.084 16.6931 142.478 16.4681C142.886 16.243 143.23 15.9195 143.512 15.4976C143.793 15.0615 143.962 14.5411 144.018 13.9363V11.7421H142.604C141.451 11.7421 140.586 12.0023 140.009 12.5227C139.447 13.0291 139.165 13.7464 139.165 14.6747C139.165 15.4483 139.348 15.9969 139.714 16.3204C140.08 16.6439 140.614 16.8056 141.317 16.8056Z" fill="white"/>
<path d="M154.554 17.734C153.513 17.734 152.571 17.5019 151.727 17.0377C150.883 16.5595 150.215 15.8914 149.722 15.0334C149.23 14.1754 148.984 13.1838 148.984 12.0586C148.984 10.9333 149.223 9.94877 149.701 9.10485C150.194 8.24686 150.848 7.58579 151.664 7.12163C152.493 6.64341 153.415 6.4043 154.427 6.4043C155.313 6.4043 156.108 6.60121 156.811 6.99504C157.515 7.38887 158.063 7.93742 158.457 8.64069C158.851 9.3299 159.055 10.1246 159.069 11.0248H151.305V13.1135C151.305 14.3512 151.579 15.3569 152.128 16.1305C152.69 16.89 153.499 17.2698 154.554 17.2698C155.524 17.2698 156.382 16.9955 157.128 16.447C157.873 15.8984 158.33 15.1881 158.499 14.3161H158.985C158.788 15.3569 158.288 16.1868 157.487 16.8056C156.685 17.4245 155.707 17.734 154.554 17.734ZM156.748 10.4973C156.748 9.27363 156.558 8.36642 156.178 7.77567C155.799 7.17086 155.208 6.86846 154.406 6.86846C153.464 6.86846 152.732 7.19899 152.212 7.86006C151.692 8.52114 151.396 9.40022 151.326 10.4973H156.748Z" fill="white"/>
</svg>
