<svg width="122" height="18" viewBox="0 0 122 18" fill="none" xmlns="http://www.w3.org/2000/svg">
<circle cx="6.3926" cy="8.95168" r="6.3926" fill="#C19962"/>
<path d="M18.8008 17.5835L19.9263 17.4227V5.52438L18.8008 5.36359V5.04201H21.5342V6.73029C21.8022 6.15145 22.1613 5.70124 22.6115 5.37967C23.0724 5.04737 23.6191 4.88122 24.2515 4.88122C25.0126 4.88122 25.6825 5.06345 26.2614 5.4279C26.8402 5.78164 27.2904 6.28544 27.612 6.93931C27.9336 7.58247 28.0944 8.33817 28.0944 9.20643C28.0944 10.0747 27.9336 10.8358 27.612 11.4896C27.2904 12.1328 26.8402 12.6312 26.2614 12.985C25.6825 13.3387 25.0126 13.5156 24.2515 13.5156C23.6191 13.5156 23.0724 13.3548 22.6115 13.0332C22.1613 12.7009 21.8022 12.2507 21.5342 11.6826V17.4227L23.0456 17.5835V17.9051H18.8008V17.5835ZM24.0907 13.1136C25.5807 13.1136 26.3257 12.0792 26.3257 10.0104V8.40249C26.3257 6.32296 25.5807 5.28319 24.0907 5.28319C23.6191 5.28319 23.1903 5.42254 22.8044 5.70124C22.4185 5.96922 22.113 6.33368 21.8879 6.7946C21.6628 7.25553 21.5449 7.75397 21.5342 8.28994V10.0104C21.5342 10.5571 21.6414 11.0716 21.8558 11.5539C22.0809 12.0256 22.3864 12.4061 22.7723 12.6955C23.1689 12.9742 23.6084 13.1136 24.0907 13.1136Z" fill="#1F1F1F"/>
<path d="M33.7155 13.5156C32.9223 13.5156 32.2041 13.3387 31.561 12.985C30.9178 12.6205 30.4087 12.1113 30.0335 11.4575C29.6583 10.8036 29.4707 10.0479 29.4707 9.19035C29.4707 8.33281 29.653 7.58247 30.0174 6.93931C30.3926 6.28544 30.891 5.78164 31.5127 5.4279C32.1452 5.06345 32.8473 4.88122 33.6191 4.88122C34.2944 4.88122 34.9 5.03129 35.436 5.33143C35.9719 5.63157 36.39 6.04962 36.6901 6.58558C36.9903 7.11082 37.1457 7.71646 37.1564 8.40249H31.2394V9.99429C31.2394 10.9376 31.4484 11.704 31.8665 12.2936C32.2952 12.8724 32.9116 13.1618 33.7155 13.1618C34.4552 13.1618 35.109 12.9528 35.6772 12.5347C36.2453 12.1167 36.5936 11.5754 36.7223 10.9108H37.0921C36.942 11.704 36.5615 12.3364 35.9505 12.8081C35.3395 13.2797 34.5945 13.5156 33.7155 13.5156ZM35.3877 8.00052C35.3877 7.06794 35.243 6.37655 34.9536 5.92635C34.6642 5.46542 34.214 5.23496 33.603 5.23496C32.8848 5.23496 32.3274 5.48686 31.9308 5.99066C31.5342 6.49447 31.3091 7.16442 31.2555 8.00052H35.3877Z" fill="#1F1F1F"/>
<path d="M38.2264 13.0332L39.3519 12.8724V5.5083L38.2264 5.34751V5.02593H40.9598V6.76245C41.3564 6.18361 41.8227 5.72804 42.3587 5.39574C42.8946 5.05273 43.4735 4.88122 44.0952 4.88122C44.867 4.88122 45.4726 5.07417 45.9121 5.46006C46.3623 5.84595 46.5874 6.41943 46.5874 7.1805V12.8724L47.7129 13.0332V13.3548H44.0148V13.0332L44.9795 12.8724V7.21265C44.9795 6.65525 44.867 6.22649 44.6419 5.92635C44.4168 5.61549 44.0684 5.46006 43.5967 5.46006C43.1037 5.46006 42.6266 5.64229 42.1657 6.00674C41.7155 6.36048 41.3135 6.79996 40.9598 7.32521V12.8724L41.9245 13.0332V13.3548H38.2264V13.0332Z" fill="#1F1F1F"/>
<path d="M51.761 13.5156C51.0536 13.5156 50.4854 13.3387 50.0567 12.985C49.6386 12.6312 49.4296 12.0685 49.4296 11.2967V5.5083L48.288 5.34751V5.02593H49.4296V3.69139L51.0375 3.28942V5.02593H53.1277V5.34751L51.0375 5.5083V11.2645C51.0375 12.4008 51.4448 12.9689 52.2595 12.9689C52.431 12.9689 52.5918 12.9421 52.7418 12.8885C52.9026 12.8349 53.0259 12.7813 53.1116 12.7277C53.2081 12.6741 53.2671 12.6366 53.2885 12.6151L53.4975 12.8724C53.0152 13.3012 52.4363 13.5156 51.761 13.5156Z" fill="#1F1F1F"/>
<path d="M53.9104 13.0332L55.036 12.8724V0.974064L53.9104 0.813276V0.491699H56.6438V6.76245C57.0404 6.18361 57.5067 5.72804 58.0427 5.39574C58.5787 5.05273 59.1575 4.88122 59.7792 4.88122C60.551 4.88122 61.1566 5.07417 61.5961 5.46006C62.0463 5.84595 62.2714 6.41943 62.2714 7.1805V12.8724L63.3969 13.0332V13.3548H59.6988V13.0332L60.6635 12.8724V7.21265C60.6635 6.65525 60.551 6.22649 60.3259 5.92635C60.1008 5.61549 59.7524 5.46006 59.2808 5.46006C58.7877 5.46006 58.3107 5.64229 57.8497 6.00674C57.3995 6.36048 56.9976 6.79996 56.6438 7.32521V12.8724L57.6086 13.0332V13.3548H53.9104V13.0332Z" fill="#1F1F1F"/>
<path d="M68.5407 13.5156C67.7689 13.5156 67.0668 13.3387 66.4343 12.985C65.8019 12.6205 65.2981 12.1113 64.9229 11.4575C64.5585 10.7929 64.3763 10.0372 64.3763 9.19035C64.3763 8.34353 64.5585 7.59319 64.9229 6.93931C65.2981 6.28544 65.8019 5.78164 66.4343 5.4279C67.0668 5.06345 67.7689 4.88122 68.5407 4.88122C69.3125 4.88122 70.0146 5.06345 70.647 5.4279C71.2794 5.78164 71.7779 6.28544 72.1423 6.93931C72.5175 7.59319 72.7051 8.34353 72.7051 9.19035C72.7051 10.0372 72.5175 10.7929 72.1423 11.4575C71.7779 12.1113 71.2794 12.6205 70.647 12.985C70.0146 13.3387 69.3125 13.5156 68.5407 13.5156ZM68.5407 13.1618C69.3339 13.1618 69.9288 12.8724 70.3254 12.2936C70.7328 11.7147 70.9364 10.9483 70.9364 9.99429V8.38641C70.9364 7.4324 70.7328 6.67133 70.3254 6.10321C69.9288 5.52438 69.3339 5.23496 68.5407 5.23496C67.7474 5.23496 67.1472 5.52438 66.7398 6.10321C66.3432 6.67133 66.1449 7.4324 66.1449 8.38641V9.99429C66.1449 10.9483 66.3432 11.7147 66.7398 12.2936C67.1472 12.8724 67.7474 13.1618 68.5407 13.1618Z" fill="#1F1F1F"/>
<path d="M77.2798 13.5156C76.508 13.5156 75.897 13.3226 75.4468 12.9367C75.0073 12.5508 74.7876 11.9774 74.7876 11.2163V5.5083L73.662 5.34751V5.02593H76.3954V11.1841C76.3954 11.7308 76.508 12.1596 76.7331 12.4704C76.9582 12.7813 77.3066 12.9367 77.7782 12.9367C78.2713 12.9367 78.7429 12.7759 79.1932 12.4544C79.6541 12.1221 80.0614 11.7147 80.4151 11.2324V5.5083L79.2896 5.34751V5.02593H82.023V12.8724L83.1485 13.0332V13.3548H80.4151V11.8112C80.0293 12.3472 79.563 12.7652 79.0163 13.0654C78.4803 13.3655 77.9015 13.5156 77.2798 13.5156Z" fill="#1F1F1F"/>
<path d="M87.4068 13.5156C86.5278 13.5156 85.7936 13.328 85.204 12.9528C84.6144 12.5776 84.3197 12.0899 84.3197 11.4896C84.3197 11.1788 84.4001 10.9376 84.5608 10.7661C84.7324 10.5838 84.9575 10.4927 85.2362 10.4927C85.4505 10.4927 85.6328 10.5463 85.7828 10.6535C85.9329 10.7607 86.0401 10.9108 86.1044 11.1037C85.8686 11.361 85.7507 11.6343 85.7507 11.9238C85.7507 12.256 85.9007 12.5455 86.2009 12.792C86.501 13.0386 86.903 13.1618 87.4068 13.1618C88.0821 13.1618 88.6341 13.0118 89.0629 12.7116C89.4917 12.4008 89.7061 11.9881 89.7061 11.4735C89.7061 11.1734 89.615 10.9483 89.4327 10.7982C89.2505 10.6482 88.8968 10.4767 88.3715 10.2837L85.9436 9.39938C84.9896 9.05636 84.5126 8.41857 84.5126 7.48599C84.5126 6.72493 84.7752 6.10321 85.3005 5.62085C85.8257 5.12776 86.5493 4.88122 87.4711 4.88122C88.2322 4.88122 88.8807 5.05809 89.4167 5.41182C89.9633 5.75484 90.2367 6.24792 90.2367 6.89108C90.2367 7.14834 90.167 7.35736 90.0276 7.51815C89.8883 7.66822 89.7061 7.74326 89.481 7.74326C89.2559 7.74326 89.0683 7.6843 88.9182 7.56639C88.7789 7.43776 88.7092 7.26625 88.7092 7.05187C88.8485 6.94467 88.945 6.83212 88.9986 6.71421C89.0522 6.58558 89.079 6.43551 89.079 6.264C89.079 5.96386 88.945 5.71732 88.677 5.52438C88.4198 5.33143 88.0178 5.23496 87.4711 5.23496C86.9995 5.23496 86.5921 5.30999 86.2491 5.46006C85.9168 5.59941 85.6649 5.787 85.4934 6.02282C85.3219 6.25864 85.2362 6.49983 85.2362 6.74637C85.2362 7.00363 85.3273 7.20729 85.5095 7.35736C85.7024 7.50743 86.0508 7.67358 86.5546 7.85581L88.8057 8.65975C89.3309 8.8527 89.7275 9.12068 89.9955 9.46369C90.2635 9.80671 90.3975 10.2516 90.3975 10.7982C90.3975 11.5807 90.1509 12.2293 89.6578 12.7438C89.1647 13.2583 88.4144 13.5156 87.4068 13.5156Z" fill="#1F1F1F"/>
<path d="M96.131 13.5156C95.3377 13.5156 94.6195 13.3387 93.9764 12.985C93.3332 12.6205 92.8241 12.1113 92.4489 11.4575C92.0737 10.8036 91.8861 10.0479 91.8861 9.19035C91.8861 8.33281 92.0684 7.58247 92.4328 6.93931C92.808 6.28544 93.3064 5.78164 93.9281 5.4279C94.5606 5.06345 95.2627 4.88122 96.0345 4.88122C96.7098 4.88122 97.3154 5.03129 97.8514 5.33143C98.3873 5.63157 98.8054 6.04962 99.1055 6.58558C99.4057 7.11082 99.5611 7.71646 99.5718 8.40249H93.6548V9.99429C93.6548 10.9376 93.8638 11.704 94.2819 12.2936C94.7106 12.8724 95.327 13.1618 96.131 13.1618C96.8706 13.1618 97.5245 12.9528 98.0926 12.5347C98.6607 12.1167 99.0091 11.5754 99.1377 10.9108H99.5075C99.3574 11.704 98.9769 12.3364 98.3659 12.8081C97.7549 13.2797 97.0099 13.5156 96.131 13.5156ZM97.8032 8.00052C97.8032 7.06794 97.6584 6.37655 97.369 5.92635C97.0796 5.46542 96.6294 5.23496 96.0184 5.23496C95.3002 5.23496 94.7428 5.48686 94.3462 5.99066C93.9496 6.49447 93.7245 7.16442 93.6709 8.00052H97.8032Z" fill="#1F1F1F"/>
<path d="M101.976 13.5156C101.708 13.5156 101.478 13.4244 101.285 13.2422C101.103 13.0493 101.012 12.8188 101.012 12.5508C101.012 12.2828 101.103 12.0631 101.285 11.8916C101.478 11.7094 101.708 11.6183 101.976 11.6183C102.244 11.6183 102.469 11.7094 102.652 11.8916C102.834 12.0631 102.925 12.2828 102.925 12.5508C102.925 12.8188 102.834 13.0493 102.652 13.2422C102.469 13.4244 102.244 13.5156 101.976 13.5156Z" fill="#1F1F1F"/>
<path d="M106.812 13.5156C106.126 13.5156 105.563 13.3387 105.124 12.985C104.684 12.6205 104.465 12.0845 104.465 11.3771C104.465 10.3695 104.888 9.65664 105.735 9.23859C106.582 8.80982 107.562 8.59543 108.677 8.59543H109.755V7.35736C109.755 6.79996 109.69 6.37119 109.562 6.07106C109.444 5.7602 109.256 5.54581 108.999 5.4279C108.742 5.29927 108.393 5.23496 107.954 5.23496C107.45 5.23496 107.075 5.33679 106.828 5.54045C106.582 5.7334 106.458 5.99602 106.458 6.32832C106.458 6.63917 106.608 6.84284 106.909 6.93931C106.909 7.20729 106.807 7.44312 106.603 7.64678C106.399 7.85045 106.158 7.95228 105.88 7.95228C105.579 7.95228 105.338 7.87189 105.156 7.7111C104.974 7.53959 104.883 7.28233 104.883 6.93931C104.883 6.3176 105.193 5.81915 105.815 5.44398C106.437 5.06881 107.214 4.88122 108.147 4.88122C110.29 4.88122 111.362 5.81379 111.362 7.67894V12.2775C111.362 12.5133 111.411 12.6955 111.507 12.8242C111.614 12.9421 111.764 13.001 111.957 13.001C112.14 13.001 112.284 12.9421 112.391 12.8242C112.499 12.6955 112.552 12.524 112.552 12.3096H112.89C112.89 12.6848 112.767 12.9796 112.52 13.194C112.284 13.4084 111.952 13.5156 111.523 13.5156C111.03 13.5156 110.612 13.3762 110.269 13.0975C109.937 12.8081 109.765 12.3632 109.755 11.763C109.497 12.3096 109.101 12.7384 108.565 13.0493C108.039 13.3601 107.455 13.5156 106.812 13.5156ZM107.696 12.8081C107.986 12.8081 108.281 12.7223 108.581 12.5508C108.892 12.3793 109.154 12.1328 109.369 11.8112C109.583 11.4789 109.712 11.0823 109.755 10.6214V8.94917H108.677C107.798 8.94917 107.139 9.14747 106.7 9.54409C106.271 9.92998 106.056 10.4767 106.056 11.1841C106.056 11.7737 106.196 12.1917 106.474 12.4383C106.753 12.6848 107.16 12.8081 107.696 12.8081Z" fill="#1F1F1F"/>
<path d="M117.784 13.5156C116.991 13.5156 116.273 13.3387 115.629 12.985C114.986 12.6205 114.477 12.1113 114.102 11.4575C113.727 10.8036 113.539 10.0479 113.539 9.19035C113.539 8.33281 113.721 7.58247 114.086 6.93931C114.461 6.28544 114.959 5.78164 115.581 5.4279C116.214 5.06345 116.916 4.88122 117.688 4.88122C118.363 4.88122 118.968 5.03129 119.504 5.33143C120.04 5.63157 120.458 6.04962 120.759 6.58558C121.059 7.11082 121.214 7.71646 121.225 8.40249H115.308V9.99429C115.308 10.9376 115.517 11.704 115.935 12.2936C116.364 12.8724 116.98 13.1618 117.784 13.1618C118.524 13.1618 119.177 12.9528 119.746 12.5347C120.314 12.1167 120.662 11.5754 120.791 10.9108H121.161C121.01 11.704 120.63 12.3364 120.019 12.8081C119.408 13.2797 118.663 13.5156 117.784 13.5156ZM119.456 8.00052C119.456 7.06794 119.311 6.37655 119.022 5.92635C118.733 5.46542 118.282 5.23496 117.671 5.23496C116.953 5.23496 116.396 5.48686 115.999 5.99066C115.603 6.49447 115.378 7.16442 115.324 8.00052H119.456Z" fill="#1F1F1F"/>
</svg>
